<svg width="174" height="41" viewBox="0 0 174 41" fill="none" xmlns="http://www.w3.org/2000/svg">
<path d="M11.5619 7.06856C6.37693 8.8941 2.29227 13.0839 0.660694 18.2505C-0.234724 21.0861 -0.217651 25.8484 0.697641 28.5832C2.19878 33.0679 5.29342 36.5944 9.506 38.6205C13.5045 40.5435 17.197 40.9445 21.2895 39.9003C24.3964 39.1075 26.5898 37.8402 29.0359 35.4252C31.9399 32.5577 33.317 29.9862 34.023 26.1131C34.2659 24.7808 34.2592 24.7621 33.5922 24.8891C32.9411 25.0134 32.0502 24.2655 31.7378 23.3331C31.6731 23.1393 30.9468 23.6168 30.0172 24.4641C28.8567 25.5219 28.1844 25.9302 27.6028 25.9302C26.6312 25.9302 26.4176 25.7118 25.2798 23.5565L24.3953 21.8809L22.7223 21.5947C21.2909 21.3498 20.9592 21.175 20.4246 20.3835L19.7998 19.4586L19.6182 20.1805C19.3531 21.2344 19.6084 21.6447 20.9528 22.3247C22.3486 23.0309 22.5659 23.2932 22.5717 24.2812C22.5773 25.2578 23.4092 25.945 24.8129 26.133C25.6375 26.2433 26.1067 26.4907 26.4325 26.9872C26.8784 27.6658 26.8658 27.7077 25.9933 28.4344C24.9392 29.3124 24.8588 29.8946 25.714 30.461C26.2256 30.8 26.3191 31.0904 26.2544 32.1413C26.1909 33.1709 26.288 33.4899 26.7672 33.8247C27.3573 34.2372 27.3567 34.2397 26.4823 34.9739C23.0789 37.831 17.733 38.9654 13.2108 37.7902C7.95476 36.4244 3.49698 31.7911 2.40927 26.5633C1.92167 24.2203 2.20662 20.0308 2.98867 18.0411C3.67584 16.2934 4.10214 15.9823 4.10214 17.2284C4.10214 18.4035 5.67801 21.3361 6.80911 22.2663C7.3524 22.7131 8.50842 23.2973 9.37836 23.5643C10.248 23.8316 11.1801 24.2413 11.4497 24.475C12.2482 25.1673 12.0531 26.1913 10.9391 27.1573C9.74196 28.1953 9.83069 28.5874 11.4919 29.595C12.6471 30.2957 12.6994 30.3859 12.7067 31.6895C12.7109 32.4384 12.7843 33.5541 12.8702 34.1685C12.9558 34.7828 13.0337 35.388 13.0426 35.5134C13.0516 35.6388 13.4045 35.7016 13.8263 35.653C14.4295 35.5838 14.7262 35.2852 15.2141 34.2576C15.7026 33.2282 16.1787 32.7501 17.4556 32.0073C18.9716 31.1253 19.0827 30.9893 19.1619 29.9198C19.2324 28.9692 19.0981 28.607 18.367 27.7764C17.8833 27.2266 16.7497 26.4466 15.8478 26.0428C13.7645 25.11 13.3693 24.6579 13.0888 22.8879C12.9634 22.0974 12.7683 21.359 12.6549 21.2467C12.5416 21.1347 11.8776 21.0431 11.1793 21.0431C9.72405 21.0431 9.23477 20.562 9.52363 19.4142C9.98744 17.5702 12.1478 17.4186 14.1077 19.0925C15.4 20.1959 15.854 20.2833 16.5146 19.555C17.2555 18.7381 17.0654 17.9953 15.8705 17.0371C14.4158 15.8709 14.1821 14.9292 14.1804 10.2217C14.179 7.33358 14.092 6.38325 13.8289 6.38772C13.6366 6.39107 12.6163 6.69742 11.5619 7.06856Z" fill="black"/>
<path d="M29.5736 16.5425C29.5736 19.7091 29.6321 22.2998 29.7035 22.2998C29.7748 22.2998 30.3338 21.7659 30.9457 21.113L32.058 19.9261L33.4757 23.1161L34.5335 22.6821C36.1027 22.0384 36.1547 21.9136 35.4925 20.3779C35.1622 19.6116 34.8918 18.9199 34.8918 18.8403C34.8918 18.761 35.6548 18.6585 36.5875 18.613L38.2831 18.5298L34.9825 15.5975C33.167 13.9848 31.2074 12.2422 30.6277 11.7253L29.5736 10.785V16.5425Z" fill="black"/>
<path d="M21.5528 5.86453H15.6747V13.1253H21.5528V18.9898H27.6961V13.0164L27.7714 6.8252L31.2702 9.94791L34.7083 13.1253V5.86453H28.8303V2.42439e-05L21.5528 0V5.86453Z" fill="#DA2C38"/>
<path d="M53.9055 38.4098C53.1475 39.1661 52.2436 39.7588 51.194 40.1879C50.1516 40.6097 49.0145 40.8206 47.7826 40.8206C46.5507 40.8206 45.4136 40.6097 44.3712 40.1879C43.3289 39.7661 42.4214 39.1734 41.6487 38.4098C40.8834 37.6389 40.2856 36.7371 39.8556 35.7044C39.4328 34.6644 39.2214 33.5336 39.2214 32.3118C39.2214 31.0828 39.4328 29.9519 39.8556 28.9192C40.2856 27.8792 40.8834 26.9775 41.6487 26.2139C42.4214 25.4502 43.3289 24.8575 44.3712 24.4357C45.4136 24.0139 46.5507 23.803 47.7826 23.803C49.0072 23.803 50.1407 24.0176 51.183 24.4466C52.2327 24.8684 53.1329 25.4539 53.8837 26.2029L52.2108 27.9047C51.6641 27.2865 51.0081 26.8029 50.2427 26.4538C49.4846 26.0975 48.6537 25.9193 47.7498 25.9193C46.8751 25.9193 46.0696 26.0793 45.3334 26.3993C44.5972 26.712 43.9558 27.1593 43.4091 27.7411C42.8624 28.3156 42.436 28.9919 42.1298 29.7701C41.831 30.5482 41.6815 31.3955 41.6815 32.3118C41.6815 33.2281 41.831 34.0754 42.1298 34.8535C42.436 35.6317 42.8624 36.3117 43.4091 36.8935C43.9558 37.468 44.5972 37.9152 45.3334 38.2352C46.0696 38.5479 46.8751 38.7043 47.7498 38.7043C48.6537 38.7043 49.4846 38.5298 50.2427 38.1807C51.0081 37.8243 51.6605 37.3371 52.1999 36.7189L53.9055 38.4098Z" fill="black"/>
<path d="M58.7002 40.4933H56.3167V23.6939H58.7002V40.4933Z" fill="black"/>
<path d="M62.7842 26.4211C62.4417 26.4211 62.1537 26.3011 61.9205 26.0611C61.6872 25.8211 61.5706 25.5302 61.5706 25.1884C61.5706 24.8466 61.6872 24.5594 61.9205 24.3267C62.1537 24.0867 62.4417 23.9667 62.7842 23.9667C63.1341 23.9667 63.4257 24.0867 63.6589 24.3267C63.8995 24.5594 64.0198 24.8466 64.0198 25.1884C64.0198 25.5302 63.8995 25.8211 63.6589 26.0611C63.4257 26.3011 63.1341 26.4211 62.7842 26.4211ZM63.8995 40.4933H61.6581V29.5846H63.8995V40.4933Z" fill="black"/>
<path d="M76.1511 38.8679C75.6189 39.457 74.9811 39.9115 74.2376 40.2315C73.4941 40.5515 72.6887 40.7115 71.8213 40.7115C70.7279 40.7115 69.7438 40.4642 68.8691 39.9697C68.0017 39.4752 67.3165 38.7988 66.8136 37.9407C66.3106 37.0825 66.0591 36.1153 66.0591 35.039C66.0591 33.9554 66.3106 32.9881 66.8136 32.1373C67.3165 31.2791 68.0017 30.6028 68.8691 30.1083C69.7438 29.6137 70.7279 29.3665 71.8213 29.3665C72.6814 29.3665 73.4832 29.5265 74.2267 29.8464C74.9702 30.1592 75.608 30.6101 76.1401 31.1991L74.8171 32.5845C74.46 32.2064 74.0299 31.9155 73.5269 31.7118C73.0313 31.5009 72.5028 31.3955 71.9415 31.3955C71.2491 31.3955 70.6331 31.5518 70.0937 31.8646C69.5543 32.1773 69.1315 32.6063 68.8254 33.1518C68.5192 33.6899 68.3662 34.3154 68.3662 35.0281C68.3662 35.7335 68.5192 36.3626 68.8254 36.9153C69.1315 37.468 69.5543 37.9007 70.0937 38.2134C70.6331 38.5261 71.2491 38.6825 71.9415 38.6825C72.5028 38.6825 73.0349 38.577 73.5379 38.3661C74.0408 38.1552 74.4673 37.8643 74.8171 37.4934L76.1511 38.8679Z" fill="black"/>
<path d="M80.4975 40.4933H78.256V24.1303H80.4975V35.159L81.4268 34.0463L85.6473 29.5846H88.4573L83.9416 34.3626L89.0915 40.4933H86.194L82.389 35.8899L80.4975 37.8316V40.4933Z" fill="black"/>
<path d="M107.728 40.4933H105.323V27.5229L100.304 37.7443H98.2706L93.2739 27.5774V40.4933H90.8684V24.1303H93.9518L99.2875 35.159L104.623 24.1303H107.728V40.4933Z" fill="black"/>
<path d="M120.406 39.1952C119.051 40.2061 117.56 40.7115 115.934 40.7115C114.775 40.7115 113.737 40.457 112.818 39.9479C111.9 39.4388 111.175 38.7443 110.642 37.8643C110.11 36.9844 109.844 35.9917 109.844 34.8863C109.844 33.8318 110.088 32.89 110.577 32.0609C111.065 31.2246 111.732 30.5664 112.578 30.0864C113.423 29.6065 114.382 29.3665 115.453 29.3665C116.561 29.3665 117.534 29.6283 118.373 30.1519C119.218 30.6755 119.874 31.4064 120.341 32.3445C120.815 33.2754 121.051 34.3554 121.051 35.5844V35.9335H112.272C112.403 36.5007 112.651 36.9989 113.015 37.428C113.38 37.8498 113.832 38.1807 114.371 38.4207C114.91 38.6534 115.519 38.7698 116.197 38.7698C117.407 38.7698 118.518 38.377 119.532 37.5916L120.406 39.1952ZM112.173 34.3845H118.963C118.89 33.7736 118.701 33.2427 118.395 32.7918C118.088 32.3336 117.691 31.9773 117.203 31.7227C116.722 31.4609 116.179 31.33 115.574 31.33C114.961 31.33 114.411 31.4609 113.923 31.7227C113.434 31.9773 113.037 32.3336 112.731 32.7918C112.432 33.25 112.246 33.7808 112.173 34.3845Z" fill="black"/>
<path d="M134.047 40.4933H132.068L131.947 38.9334C131.452 39.4861 130.854 39.9224 130.154 40.2424C129.462 40.5551 128.7 40.7115 127.869 40.7115C126.819 40.7115 125.879 40.4642 125.048 39.9697C124.217 39.4752 123.561 38.7988 123.08 37.9407C122.606 37.0825 122.369 36.1153 122.369 35.039C122.369 33.9554 122.606 32.9881 123.08 32.1373C123.561 31.2791 124.217 30.6028 125.048 30.1083C125.879 29.6137 126.819 29.3665 127.869 29.3665C128.656 29.3665 129.385 29.5083 130.056 29.7919C130.734 30.0755 131.317 30.4719 131.805 30.9809V24.1303H134.047V40.4933ZM128.241 38.7043C128.904 38.7043 129.502 38.5516 130.034 38.2461C130.573 37.9407 131.003 37.5262 131.324 37.0025C131.645 36.4789 131.805 35.8826 131.805 35.2135V34.8426C131.805 34.1736 131.645 33.5772 131.324 33.0536C131.003 32.53 130.573 32.1191 130.034 31.8209C129.502 31.5227 128.904 31.3737 128.241 31.3737C127.563 31.3737 126.954 31.5337 126.415 31.8536C125.875 32.1736 125.449 32.61 125.135 33.1627C124.822 33.7081 124.665 34.3299 124.665 35.0281C124.665 35.7262 124.822 36.3517 125.135 36.9044C125.449 37.4571 125.875 37.8971 126.415 38.2243C126.954 38.5443 127.563 38.7043 128.241 38.7043Z" fill="black"/>
<path d="M138.131 26.4211C137.788 26.4211 137.5 26.3011 137.267 26.0611C137.034 25.8211 136.917 25.5302 136.917 25.1884C136.917 24.8466 137.034 24.5594 137.267 24.3267C137.5 24.0867 137.788 23.9667 138.131 23.9667C138.48 23.9667 138.772 24.0867 139.005 24.3267C139.246 24.5594 139.366 24.8466 139.366 25.1884C139.366 25.5302 139.246 25.8211 139.005 26.0611C138.772 26.3011 138.48 26.4211 138.131 26.4211ZM139.246 40.4933H137.004V29.5846H139.246V40.4933Z" fill="black"/>
<path d="M151.497 38.8679C150.965 39.457 150.327 39.9115 149.584 40.2315C148.84 40.5515 148.035 40.7115 147.168 40.7115C146.074 40.7115 145.09 40.4642 144.215 39.9697C143.348 39.4752 142.663 38.7988 142.16 37.9407C141.657 37.0825 141.405 36.1153 141.405 35.039C141.405 33.9554 141.657 32.9881 142.16 32.1373C142.663 31.2791 143.348 30.6028 144.215 30.1083C145.09 29.6137 146.074 29.3665 147.168 29.3665C148.028 29.3665 148.829 29.5265 149.573 29.8464C150.316 30.1592 150.954 30.6101 151.486 31.1991L150.163 32.5845C149.806 32.2064 149.376 31.9155 148.873 31.7118C148.378 31.5009 147.849 31.3955 147.288 31.3955C146.595 31.3955 145.979 31.5518 145.44 31.8646C144.901 32.1773 144.478 32.6063 144.172 33.1518C143.866 33.6899 143.712 34.3154 143.712 35.0281C143.712 35.7335 143.866 36.3626 144.172 36.9153C144.478 37.468 144.901 37.9007 145.44 38.2134C145.979 38.5261 146.595 38.6825 147.288 38.6825C147.849 38.6825 148.381 38.577 148.884 38.3661C149.387 38.1552 149.814 37.8643 150.163 37.4934L151.497 38.8679Z" fill="black"/>
<path d="M163.847 40.4933H161.945L161.868 38.737C161.467 39.377 160.943 39.8679 160.294 40.2097C159.652 40.5442 158.891 40.7115 158.009 40.7115C156.58 40.7115 155.45 40.2788 154.619 39.4134C153.796 38.5407 153.384 37.348 153.384 35.8353V29.5846H155.625V35.5081C155.625 36.4753 155.888 37.2462 156.412 37.8207C156.937 38.3952 157.644 38.6825 158.533 38.6825C159.452 38.6825 160.192 38.377 160.753 37.7662C161.322 37.148 161.606 36.3371 161.606 35.3335V29.5846H163.847V40.4933Z" fill="black"/>
<path d="M166.018 39.5443L166.565 37.5371C166.812 37.7843 167.108 38.0025 167.45 38.1916C167.8 38.3807 168.168 38.5298 168.555 38.6389C168.948 38.7407 169.335 38.7916 169.714 38.7916C170.311 38.7916 170.792 38.6643 171.157 38.4098C171.521 38.1552 171.704 37.8171 171.704 37.3953C171.704 37.0825 171.601 36.8244 171.397 36.6207C171.201 36.4098 170.934 36.228 170.599 36.0753C170.271 35.9226 169.918 35.7735 169.539 35.6281C169.05 35.4462 168.562 35.2353 168.073 34.9953C167.592 34.7554 167.188 34.4354 166.86 34.0354C166.532 33.6354 166.368 33.1081 166.368 32.4536C166.368 31.8282 166.528 31.2864 166.849 30.8282C167.17 30.3628 167.618 30.0028 168.194 29.7483C168.77 29.4937 169.433 29.3665 170.184 29.3665C171.35 29.3665 172.505 29.6574 173.65 30.2392L172.994 32.1482C172.76 31.9809 172.483 31.8318 172.163 31.7009C171.842 31.57 171.514 31.4682 171.179 31.3955C170.843 31.3155 170.534 31.2755 170.249 31.2755C169.776 31.2755 169.393 31.3809 169.101 31.5918C168.817 31.8027 168.675 32.0864 168.675 32.4427C168.675 32.6609 168.744 32.8609 168.883 33.0427C169.021 33.2172 169.24 33.3918 169.539 33.5663C169.845 33.7336 170.257 33.9227 170.774 34.1336C171.27 34.3299 171.765 34.5554 172.261 34.8099C172.757 35.0644 173.169 35.3953 173.497 35.8026C173.832 36.2099 174 36.7444 174 37.4062C174 38.0607 173.825 38.6389 173.475 39.1407C173.125 39.6352 172.637 40.0206 172.01 40.297C171.39 40.5733 170.668 40.7115 169.845 40.7115C168.482 40.7115 167.206 40.3224 166.018 39.5443Z" fill="black"/>
</svg>
